<?xml version="1.0" standalone="no"?>
<!DOCTYPE svg PUBLIC "-//W3C//DTD SVG 20010904//EN"
 "http://www.w3.org/TR/2001/REC-SVG-20010904/DTD/svg10.dtd">
<svg version="1.0" xmlns="http://www.w3.org/2000/svg"
 width="592.000000pt" height="592.000000pt" viewBox="0 0 592.000000 592.000000"
 preserveAspectRatio="xMidYMid meet">
<metadata>
Created by potrace 1.14, written by Peter Selinger 2001-2017
</metadata>
<g transform="translate(0.000000,592.000000) scale(0.100000,-0.100000)"
fill="#000000" stroke="none">
<path d="M2935 5601 c-85 -16 -268 -128 -375 -229 -50 -48 -142 -105 -204
-128 -71 -26 -276 -62 -420 -73 -164 -13 -202 -27 -288 -109 -69 -65 -102
-129 -155 -297 -13 -44 -31 -97 -39 -118 -8 -20 -14 -45 -14 -55 0 -9 -6 -29
-14 -44 -8 -15 -17 -41 -21 -58 -17 -76 -178 -410 -246 -510 l-16 -24 -48 37
c-26 20 -55 37 -64 37 -10 0 -21 4 -27 10 -24 24 -173 53 -299 57 -129 5 -150
2 -245 -32 -171 -62 -312 -174 -366 -290 -26 -56 -28 -71 -32 -225 -5 -182 8
-316 34 -370 52 -106 281 -346 375 -392 132 -64 124 -63 374 -63 256 0 232 -5
357 78 79 53 184 167 215 234 25 56 25 59 21 252 -3 108 -10 210 -16 226 -6
17 -13 45 -16 63 -7 38 6 53 101 119 32 21 81 55 108 74 28 19 61 40 75 47 14
7 39 21 55 32 17 11 44 27 62 35 17 8 34 19 38 25 3 5 15 10 26 10 16 0 19 -7
19 -47 0 -78 -47 -345 -86 -488 -7 -27 -21 -77 -30 -110 -9 -33 -24 -90 -35
-127 -10 -38 -28 -101 -39 -140 -12 -40 -25 -86 -31 -103 -11 -33 -28 -90 -52
-173 -29 -101 -25 -99 -194 -104 -175 -5 -193 -12 -292 -112 -79 -80 -78 -74
-87 -437 l-7 -265 52 -53 c50 -51 51 -52 51 -114 0 -71 -23 -223 -42 -282 -9
-28 -13 -113 -13 -285 l0 -245 45 -84 c57 -107 160 -215 221 -231 23 -6 49
-16 58 -21 23 -13 99 -39 146 -50 22 -5 63 -15 90 -23 168 -48 268 -61 750
-96 394 -29 1528 -47 1900 -31 273 12 556 33 675 52 36 5 106 16 155 24 286
43 467 130 626 302 108 115 129 192 136 478 5 194 -5 260 -53 355 -27 54 -89
115 -126 124 -18 4 -28 14 -33 34 -7 35 12 207 26 234 15 29 36 107 65 248 22
112 25 144 22 305 -4 208 -8 223 -100 312 -84 83 -131 95 -363 99 l-190 3 -22
42 c-13 23 -23 46 -23 50 0 5 -16 43 -36 86 -19 43 -41 92 -49 108 -37 83
-252 513 -300 600 -31 55 -63 114 -71 130 -8 17 -25 47 -37 67 -124 209 -161
268 -231 373 -45 67 -85 129 -91 138 -5 9 -31 47 -56 84 -65 96 -158 235 -199
298 -165 254 -350 464 -490 558 -19 13 -58 39 -85 58 -75 50 -87 58 -120 75
-16 8 -50 26 -75 40 -40 23 -58 27 -160 29 -63 2 -133 0 -155 -4z m-2089
-1632 c38 -11 81 -27 96 -35 14 -8 32 -14 39 -14 6 0 30 -15 53 -34 23 -18 59
-43 82 -54 43 -22 135 -115 159 -161 7 -15 17 -56 21 -92 3 -35 13 -79 20 -98
10 -24 14 -82 14 -201 l0 -168 -36 -49 c-35 -47 -153 -163 -166 -163 -3 0 -30
-16 -59 -35 -30 -19 -66 -35 -82 -35 -15 0 -50 -7 -76 -16 -44 -14 -54 -14
-108 0 -34 9 -78 16 -99 16 -22 1 -57 9 -79 20 -22 11 -47 19 -57 20 -26 0
-158 105 -210 168 -164 196 -172 211 -188 355 -18 156 -4 262 44 345 19 31 45
67 58 79 39 36 142 103 159 103 9 0 22 6 28 14 7 8 28 17 48 21 20 4 46 13 57
21 32 22 197 19 282 -7z m4610 -1294 c10 -8 26 -15 35 -15 23 0 79 -45 100
-80 16 -26 19 -51 19 -161 0 -93 -4 -140 -15 -166 -8 -19 -15 -52 -15 -72 -1
-20 -9 -54 -20 -76 -11 -22 -19 -50 -20 -63 0 -13 -8 -37 -17 -55 -25 -47 -26
-500 -2 -537 9 -14 19 -42 23 -62 4 -21 11 -38 17 -38 27 0 47 22 53 60 3 22
10 40 15 40 13 0 51 -54 51 -72 0 -7 9 -39 20 -71 26 -73 26 -168 0 -272 -11
-44 -20 -88 -20 -98 0 -50 -102 -168 -205 -239 -75 -51 -167 -91 -253 -109
-23 -5 -51 -13 -61 -18 -10 -6 -49 -13 -87 -17 -38 -3 -91 -12 -119 -19 -27
-7 -92 -16 -143 -20 -52 -3 -117 -11 -145 -16 -67 -14 -517 -31 -812 -31 -389
0 -1246 20 -1320 31 -38 6 -137 13 -220 16 -82 4 -183 13 -224 21 -40 8 -90
14 -110 14 -35 -1 -185 31 -246 52 -16 6 -48 14 -70 18 -22 5 -71 20 -110 35
-38 14 -82 30 -96 35 -47 14 -77 40 -116 98 -60 91 -81 142 -88 217 -7 75 10
267 26 297 15 28 30 176 35 358 3 91 6 185 7 210 2 40 0 45 -21 48 -13 2 -32
-4 -42 -13 -45 -41 -65 19 -49 147 5 40 12 118 15 173 4 55 13 112 20 127 20
39 99 88 158 98 64 10 209 -3 258 -24 21 -9 49 -16 64 -16 14 0 38 -6 52 -14
15 -7 54 -23 87 -35 33 -12 73 -28 88 -36 16 -8 33 -15 39 -15 6 0 32 -9 57
-21 112 -51 212 -89 236 -89 12 0 29 -6 40 -14 11 -7 40 -17 64 -21 24 -4 59
-14 77 -21 18 -8 48 -14 67 -14 18 0 53 -7 78 -15 24 -8 141 -21 259 -30 180
-14 246 -14 405 -5 263 16 374 30 500 61 22 6 67 16 101 23 34 7 67 17 74 21
8 5 30 12 49 16 57 12 148 45 242 88 25 12 50 21 55 21 5 0 36 13 69 30 33 16
71 34 85 40 14 5 32 14 40 19 29 16 213 96 290 125 8 3 22 10 30 14 26 15 152
70 210 91 19 8 58 18 85 23 28 6 66 16 85 24 50 19 240 18 266 -1z"/>
</g>
</svg>
